<?xml version="1.0" standalone="no"?>
<!DOCTYPE svg PUBLIC "-//W3C//DTD SVG 20010904//EN"
 "http://www.w3.org/TR/2001/REC-SVG-20010904/DTD/svg10.dtd">
<svg version="1.0" xmlns="http://www.w3.org/2000/svg"
 width="68.000000pt" height="90.000000pt" viewBox="0 0 68.000000 90.000000"
 preserveAspectRatio="xMidYMid meet">
<metadata>
Created by potrace 1.13, written by Peter Selinger 2001-2015
</metadata>
<g transform="translate(0.000000,90.000000) scale(0.100000,-0.100000)"
fill="#000000" stroke="none">
<path d="M387 893 c-10 -9 -9 -23 1 -23 5 0 9 7 9 15 0 17 -1 18 -10 8z"/>
<path d="M410 881 c0 -22 -45 -34 -73 -20 -12 7 -19 6 -23 -4 -3 -8 -18 -17
-33 -20 -34 -7 -77 -67 -86 -120 -11 -59 3 -167 22 -167 13 0 15 -8 10 -42 -4
-27 -2 -37 4 -27 5 7 9 24 9 36 0 34 11 53 30 53 10 0 24 7 31 17 13 15 12 15
-8 5 -36 -20 -46 -15 -38 16 5 15 9 38 11 52 1 14 3 26 4 28 2 1 3 8 4 15 1
16 100 36 209 42 137 8 169 -14 164 -110 0 -11 3 -31 7 -44 7 -21 6 -23 -10
-17 -18 6 -18 5 -1 -8 10 -7 17 -28 18 -47 1 -32 2 -32 9 -9 4 14 8 85 9 158
1 107 -2 136 -14 149 -9 8 -22 12 -31 9 -8 -3 -13 -2 -11 2 2 4 -4 15 -15 25
-17 16 -22 14 -19 -6 1 -5 -3 -5 -9 -2 -6 4 -9 13 -6 21 5 12 1 12 -23 0 -33
-18 -71 -10 -71 13 0 12 -10 18 -35 19 -29 2 -35 -1 -35 -17z m40 -12 c0 -5
-4 -9 -10 -9 -5 0 -10 7 -10 16 0 8 5 12 10 9 6 -3 10 -10 10 -16z"/>
<path d="M304 628 c-5 -8 74 -3 83 6 3 3 -13 4 -37 3 -23 -1 -44 -5 -46 -9z"/>
<path d="M533 623 c9 -2 17 -8 17 -13 0 -4 9 -6 21 -3 27 7 5 23 -31 22 -17
-1 -19 -3 -7 -6z"/>
<path d="M320 580 c-11 -7 -4 -10 27 -10 24 0 43 -5 46 -12 4 -8 6 -7 6 3 1
27 -49 39 -79 19z"/>
<path d="M423 584 c3 -4 2 -16 -4 -26 -9 -16 -8 -19 3 -16 17 6 23 48 7 48 -7
0 -9 -3 -6 -6z"/>
<path d="M475 567 c-4 -10 -5 -21 -1 -24 10 -10 18 4 13 24 -4 17 -4 17 -12 0z"/>
<path d="M515 569 c-4 -6 -4 -13 -1 -16 3 -4 6 -1 6 5 0 16 40 14 70 -3 14 -8
30 -14 35 -14 6 0 -6 8 -25 19 -39 21 -75 25 -85 9z"/>
<path d="M343 553 c9 -2 23 -2 30 0 6 3 -1 5 -18 5 -16 0 -22 -2 -12 -5z"/>
<path d="M530 549 c0 -5 9 -9 20 -9 11 0 20 2 20 4 0 2 -9 6 -20 9 -11 3 -20
1 -20 -4z"/>
<path d="M201 483 c-1 -34 3 -64 7 -67 5 -3 7 21 5 52 -6 81 -11 87 -12 15z"/>
<path d="M359 484 c-23 -25 -23 -26 -2 -13 13 7 25 19 27 26 8 19 2 16 -25
-13z"/>
<path d="M500 503 c5 -2 10 -10 10 -18 0 -15 -71 -28 -84 -15 -6 6 -17 10 -25
10 -9 0 -2 -7 15 -16 40 -20 99 -7 99 21 0 10 -6 19 -13 21 -7 1 -8 0 -2 -3z"/>
<path d="M661 454 c0 -11 3 -14 6 -6 3 7 2 16 -1 19 -3 4 -6 -2 -5 -13z"/>
<path d="M241 424 c0 -11 3 -14 6 -6 3 7 2 16 -1 19 -3 4 -6 -2 -5 -13z"/>
<path d="M350 411 c0 -28 125 -46 166 -23 18 10 17 11 -9 21 -34 13 -157 15
-157 2z m114 -11 c22 0 36 -3 33 -7 -11 -10 -100 -4 -112 9 -7 8 -3 9 15 4 14
-3 43 -6 64 -6z"/>
<path d="M655 387 c-44 -47 -50 -62 -12 -33 20 16 37 35 37 42 0 17 0 17 -25
-9z"/>
<path d="M400 352 c0 -15 60 -26 73 -13 8 8 4 11 -15 11 -15 0 -33 3 -42 6 -9
3 -16 2 -16 -4z"/>
<path d="M251 307 c-1 -34 22 -90 54 -133 25 -32 32 -50 17 -40 -4 2 -39 -15
-77 -40 -39 -24 -66 -44 -61 -44 12 0 90 43 98 55 4 6 8 6 8 1 0 -5 6 -3 13 3
8 6 17 8 20 4 4 -3 7 0 7 8 0 8 8 4 20 -11 39 -50 19 -8 -30 63 -31 44 -54 90
-59 117 -6 32 -9 37 -10 17z"/>
<path d="M205 287 c-10 -16 -40 -31 -91 -47 -42 -13 -71 -26 -66 -28 13 -4
130 36 150 51 15 12 36 47 28 47 -3 0 -12 -10 -21 -23z"/>
<path d="M562 285 c15 -44 45 -86 70 -94 l29 -10 -33 33 c-18 18 -41 44 -51
57 -10 13 -17 20 -15 14z"/>
<path d="M408 253 c12 -2 32 -2 45 0 12 2 2 4 -23 4 -25 0 -35 -2 -22 -4z"/>
<path d="M550 228 c0 -20 -4 -47 -9 -60 -16 -43 -23 -83 -13 -73 18 19 44 147
33 158 -8 8 -11 1 -11 -25z"/>
<path d="M670 115 c0 -85 -16 -100 -46 -43 l-16 31 -19 -24 c-10 -13 -19 -28
-19 -34 0 -5 7 1 16 13 l15 23 30 -32 c16 -17 29 -35 29 -40 0 -5 5 -9 10 -9
6 0 10 38 10 95 0 52 -2 95 -5 95 -3 0 -5 -34 -5 -75z"/>
<path d="M33 53 c-18 -7 -16 -40 3 -47 28 -11 46 -7 40 9 -3 8 -1 15 4 15 6 0
10 -7 10 -15 0 -10 10 -15 29 -15 23 0 28 4 27 23 -1 18 -7 22 -36 23 -19 1
-42 4 -50 7 -8 3 -21 3 -27 0z"/>
<path d="M455 20 c-10 -11 -13 -20 -7 -20 6 0 16 9 22 20 6 11 9 20 7 20 -2 0
-12 -9 -22 -20z"/>
</g>
</svg>
